<svg xmlns="http://www.w3.org/2000/svg" viewBox="0 0 113.99 58.14"><defs><style>.cls-1{fill:#2d2d2d;}</style></defs><g id="Layer_2" data-name="Layer 2"><g id="OBJECTS"><path class="cls-1" d="M0,0V58.14H114V0ZM27.93,44.35H17V20.15H11.43V11.9h16.5Zm19.38,0H36.37V20.15H30.8V11.9H47.31Zm9.68.47a5.9,5.9,0,0,1-6.11-6A5.79,5.79,0,0,1,57,32.86a5.79,5.79,0,0,1,6.12,5.93A5.9,5.9,0,0,1,57,44.82Zm0-14.33a5.89,5.89,0,0,1-6.11-6A5.79,5.79,0,0,1,57,18.53a5.8,5.8,0,0,1,6.12,5.93A5.89,5.89,0,0,1,57,30.49ZM80.77,44.35H69.83V20.15H64.27V11.9h16.5Zm19.38,0H89.21V20.15H83.65V11.9h16.5Z"/></g></g></svg>